<mxfile host="app.diagrams.net" modified="2021-01-21T19:01:16.570Z" agent="5.0 (Windows)" etag="esoQ6ER6sgo51KAlm4pB" version="14.2.6" type="github">
  <diagram name="Page-1" id="90a13364-a465-7bf4-72fc-28e22215d7a0">
    <mxGraphModel dx="1135" dy="601" grid="1" gridSize="10" guides="1" tooltips="1" connect="1" arrows="1" fold="1" page="1" pageScale="1.5" pageWidth="1169" pageHeight="826" background="#ffffff" math="0" shadow="0">
      <root>
        <mxCell id="0" style=";html=1;" />
        <mxCell id="1" style=";html=1;" parent="0" />
        <mxCell id="QK5qpRW3QtSnP2I3FCip-1" value="STM32l4xx HAL" style="rounded=1;whiteSpace=wrap;html=1;fillColor=#f8cecc;strokeColor=#b85450;" parent="1" vertex="1">
          <mxGeometry x="295" y="630" width="700" height="50" as="geometry" />
        </mxCell>
        <mxCell id="QK5qpRW3QtSnP2I3FCip-13" value="Usercode Utilities" style="rounded=1;whiteSpace=wrap;html=1;fillColor=#f5f5f5;strokeColor=#666666;fontColor=#333333;" parent="1" vertex="1">
          <mxGeometry x="295" y="460" width="125" height="130" as="geometry" />
        </mxCell>
        <mxCell id="YQ8srjXJvViR4VSSQ7q0-1" style="edgeStyle=orthogonalEdgeStyle;rounded=0;orthogonalLoop=1;jettySize=auto;html=1;exitX=0.5;exitY=1;exitDx=0;exitDy=0;entryX=0.5;entryY=0;entryDx=0;entryDy=0;" edge="1" parent="1" source="QK5qpRW3QtSnP2I3FCip-14" target="QK5qpRW3QtSnP2I3FCip-5">
          <mxGeometry relative="1" as="geometry">
            <Array as="points">
              <mxPoint x="723" y="420" />
              <mxPoint x="723" y="440" />
            </Array>
          </mxGeometry>
        </mxCell>
        <mxCell id="QK5qpRW3QtSnP2I3FCip-14" value="Mini Game (The Game)" style="rounded=1;whiteSpace=wrap;html=1;" parent="1" vertex="1">
          <mxGeometry x="295" y="370" width="700" height="50" as="geometry" />
        </mxCell>
        <mxCell id="QK5qpRW3QtSnP2I3FCip-15" value="Layers of Project" style="text;html=1;strokeColor=none;fillColor=none;align=center;verticalAlign=middle;whiteSpace=wrap;rounded=0;fontSize=17;fontStyle=5" parent="1" vertex="1">
          <mxGeometry x="200" y="230" width="170" height="50" as="geometry" />
        </mxCell>
        <mxCell id="QK5qpRW3QtSnP2I3FCip-23" style="edgeStyle=orthogonalEdgeStyle;rounded=0;orthogonalLoop=1;jettySize=auto;html=1;fontSize=17;entryX=0.55;entryY=-0.02;entryDx=0;entryDy=0;entryPerimeter=0;" parent="1" source="QK5qpRW3QtSnP2I3FCip-3" target="QK5qpRW3QtSnP2I3FCip-1" edge="1">
          <mxGeometry relative="1" as="geometry">
            <mxPoint x="675" y="629" as="targetPoint" />
          </mxGeometry>
        </mxCell>
        <mxCell id="YQ8srjXJvViR4VSSQ7q0-13" style="edgeStyle=orthogonalEdgeStyle;rounded=0;orthogonalLoop=1;jettySize=auto;html=1;exitX=0.5;exitY=1;exitDx=0;exitDy=0;entryX=0.5;entryY=0;entryDx=0;entryDy=0;" edge="1" parent="1" source="QK5qpRW3QtSnP2I3FCip-5" target="QK5qpRW3QtSnP2I3FCip-3">
          <mxGeometry relative="1" as="geometry">
            <Array as="points">
              <mxPoint x="680" y="510" />
            </Array>
          </mxGeometry>
        </mxCell>
        <mxCell id="QK5qpRW3QtSnP2I3FCip-5" value="Usercode HAL" style="rounded=1;whiteSpace=wrap;html=1;fillColor=#fff2cc;strokeColor=#d6b656;" parent="1" vertex="1">
          <mxGeometry x="450" y="460" width="545" height="50" as="geometry" />
        </mxCell>
        <mxCell id="QK5qpRW3QtSnP2I3FCip-3" value="STM32L476G BSP" style="rounded=1;whiteSpace=wrap;html=1;fillColor=#d5e8d4;strokeColor=#82b366;" parent="1" vertex="1">
          <mxGeometry x="450" y="540" width="460" height="50" as="geometry" />
        </mxCell>
        <mxCell id="YQ8srjXJvViR4VSSQ7q0-5" value="" style="endArrow=classic;html=1;" edge="1" parent="1">
          <mxGeometry width="50" height="50" relative="1" as="geometry">
            <mxPoint x="420" y="565" as="sourcePoint" />
            <mxPoint x="450" y="565" as="targetPoint" />
          </mxGeometry>
        </mxCell>
        <mxCell id="YQ8srjXJvViR4VSSQ7q0-6" value="" style="endArrow=classic;html=1;exitX=0.5;exitY=1;exitDx=0;exitDy=0;entryX=0.089;entryY=0.014;entryDx=0;entryDy=0;entryPerimeter=0;" edge="1" parent="1" source="QK5qpRW3QtSnP2I3FCip-13" target="QK5qpRW3QtSnP2I3FCip-1">
          <mxGeometry width="50" height="50" relative="1" as="geometry">
            <mxPoint x="730" y="550" as="sourcePoint" />
            <mxPoint x="780" y="500" as="targetPoint" />
            <Array as="points">
              <mxPoint x="357" y="590" />
            </Array>
          </mxGeometry>
        </mxCell>
        <mxCell id="YQ8srjXJvViR4VSSQ7q0-7" value="" style="endArrow=classic;html=1;exitX=0.996;exitY=0.194;exitDx=0;exitDy=0;entryX=0;entryY=0.5;entryDx=0;entryDy=0;exitPerimeter=0;" edge="1" parent="1" source="QK5qpRW3QtSnP2I3FCip-13" target="QK5qpRW3QtSnP2I3FCip-5">
          <mxGeometry width="50" height="50" relative="1" as="geometry">
            <mxPoint x="440" y="470" as="sourcePoint" />
            <mxPoint x="490" y="420" as="targetPoint" />
            <Array as="points">
              <mxPoint x="420" y="485" />
            </Array>
          </mxGeometry>
        </mxCell>
        <mxCell id="YQ8srjXJvViR4VSSQ7q0-8" value="" style="endArrow=classic;html=1;exitX=0.088;exitY=0.996;exitDx=0;exitDy=0;exitPerimeter=0;" edge="1" parent="1" source="QK5qpRW3QtSnP2I3FCip-14" target="QK5qpRW3QtSnP2I3FCip-13">
          <mxGeometry width="50" height="50" relative="1" as="geometry">
            <mxPoint x="359" y="422" as="sourcePoint" />
            <mxPoint x="780" y="500" as="targetPoint" />
          </mxGeometry>
        </mxCell>
        <mxCell id="YQ8srjXJvViR4VSSQ7q0-10" value="" style="endArrow=classic;html=1;exitX=0.906;exitY=1.028;exitDx=0;exitDy=0;exitPerimeter=0;entryX=0.927;entryY=0;entryDx=0;entryDy=0;entryPerimeter=0;" edge="1" parent="1" source="QK5qpRW3QtSnP2I3FCip-5" target="QK5qpRW3QtSnP2I3FCip-1">
          <mxGeometry width="50" height="50" relative="1" as="geometry">
            <mxPoint x="730" y="550" as="sourcePoint" />
            <mxPoint x="780" y="500" as="targetPoint" />
          </mxGeometry>
        </mxCell>
      </root>
    </mxGraphModel>
  </diagram>
</mxfile>
